<!DOCTYPE svg PUBLIC "-//W3C//DTD SVG 1.1//EN" "http://www.w3.org/Graphics/SVG/1.1/DTD/svg11.dtd">
<!-- Uploaded to: SVG Repo, www.svgrepo.com, Transformed by: SVG Repo Mixer Tools -->
<svg width="800px" height="800px" viewBox="-102.4 -102.4 1228.80 1228.80" class="icon" version="1.1" xmlns="http://www.w3.org/2000/svg" fill="#000000">
<g id="SVGRepo_bgCarrier" stroke-width="0">
<rect x="-102.4" y="-102.4" width="1228.80" height="1228.80" rx="614.4" fill="#fda5a5" strokewidth="0"/>
</g>
<g id="SVGRepo_tracerCarrier" stroke-linecap="round" stroke-linejoin="round"/>
<g id="SVGRepo_iconCarrier">
<path d="M778.666667 757.333333c185.6-185.6 185.6-486.4 0-672L108.8 757.333333c185.6 185.6 484.266667 185.6 669.866667 0z" fill="#FFECB3"/>
<path d="M597.333333 576c100.266667-100.266667 117.333333-253.866667 29.866667-334.933333L260.266667 605.866667c83.2 87.466667 234.666667 70.4 337.066666-29.866667z" fill="#FFB300"/>
<path d="M748.8 727.466667c-168.533333 168.533333-441.6 168.533333-610.133333 0l-29.866667 29.866666c185.6 185.6 486.4 185.6 672 0s185.6-486.4 0-672l-29.866667 29.866667c166.4 170.666667 166.4 443.733333-2.133333 612.266667z" fill="#7AB152"/>
<path d="M550.4 499.2c8.533333 8.533333 29.866667 61.866667 29.866667 61.866667s-53.333333-21.333333-61.866667-29.866667c-8.533333-8.533333-8.533333-21.333333 0-29.866667 10.666667-10.666667 23.466667-10.666667 32-2.133333z m-198.4 106.666667c-8.533333 8.533333-8.533333 21.333333 0 29.866666 8.533333 8.533333 44.8 14.933333 44.8 14.933334s-6.4-38.4-14.933333-44.8-21.333333-8.533333-29.866667 0z m275.2-275.2c-8.533333 8.533333-8.533333 21.333333 0 29.866666s44.8 14.933333 44.8 14.933334-6.4-38.4-14.933333-44.8c-8.533333-8.533333-21.333333-8.533333-29.866667 0z m-61.866667 121.6c-8.533333 8.533333-8.533333 21.333333 0 29.866666 8.533333 8.533333 61.866667 29.866667 61.866667 29.866667s-21.333333-53.333333-29.866667-61.866667c-8.533333-6.4-23.466667-6.4-32 2.133334z m-91.733333 91.733333c-8.533333 8.533333-8.533333 21.333333 0 29.866667 8.533333 8.533333 61.866667 29.866667 61.866667 29.866666s-21.333333-53.333333-29.866667-61.866666c-8.533333-6.4-23.466667-6.4-32 2.133333zM413.866667 576c-8.533333 8.533333-8.533333 21.333333 0 29.866667 8.533333 8.533333 61.866667 29.866667 61.866666 29.866666s-21.333333-53.333333-29.866666-61.866666c-10.666667-6.4-23.466667-6.4-32 2.133333z m183.466666-183.466667c-8.533333 8.533333-8.533333 21.333333 0 29.866667 8.533333 8.533333 61.866667 29.866667 61.866667 29.866667s-21.333333-53.333333-29.866667-61.866667c-10.666667-6.4-25.6-6.4-32 2.133333z m-153.6 29.866667c-8.533333 8.533333-8.533333 21.333333 0 29.866667 8.533333 8.533333 61.866667 29.866667 61.866667 29.866666s-21.333333-53.333333-29.866667-61.866666c-10.666667-6.4-23.466667-6.4-32 2.133333z m-44.8 44.8c-8.533333 8.533333-8.533333 21.333333 0 29.866667 8.533333 8.533333 61.866667 29.866667 61.866667 29.866666s-21.333333-53.333333-29.866667-61.866666c-10.666667-4.266667-25.6-4.266667-32 2.133333z m89.6-89.6c-8.533333 8.533333-8.533333 21.333333 0 29.866667 8.533333 8.533333 61.866667 29.866667 61.866667 29.866666s-21.333333-53.333333-29.866667-61.866666c-8.533333-6.4-23.466667-6.4-32 2.133333z m46.933334-46.933333c-8.533333 8.533333-8.533333 21.333333 0 29.866666 8.533333 8.533333 44.8 14.933333 44.8 14.933334s-6.4-38.4-14.933334-44.8c-8.533333-8.533333-21.333333-8.533333-29.866666 0z m29.866666-29.866667c8.533333 8.533333 44.8 14.933333 44.8 14.933333s-6.4-38.4-12.8-46.933333l-32 32z m-213.333333 213.333333c-8.533333 8.533333-8.533333 21.333333 0 29.866667 8.533333 8.533333 44.8 14.933333 44.8 14.933333s-6.4-38.4-14.933333-44.8c-8.533333-8.533333-21.333333-8.533333-29.866667 0zM290.133333 576c8.533333 8.533333 44.8 14.933333 44.8 14.933333s-6.4-38.4-14.933333-44.8L290.133333 576z" fill="#F57F17"/>
</g>
</svg>