<?xml version="1.0" encoding="utf-8"?>
<!-- Uploaded to: SVG Repo, www.svgrepo.com, Generator: SVG Repo Mixer Tools -->
<svg width="800px" height="800px" viewBox="0 0 1024 1024" class="icon"  version="1.1" xmlns="http://www.w3.org/2000/svg"><path d="M115.178667 773.632c10.282667 79.253333 63.424 139.349333 138.538666 139.349333 368 0 562.453333-175.637333 562.453334-175.637333 8.533333-8.512 117.674667-108.885333 117.674666-222.784 0-100.458667-77.888-192.405333-148.928-252.885333-57.706667-49.088-117.226667-108.885333-199.04-108.885334-145.28 0-229.354667 55.232-262.677333 153.898667 59.989333 341.312-228.010667 313.322667-208.021333 466.944z" fill="#F44336" /><path d="M531.2 552.682667a21.418667 21.418667 0 1 1 38.656-18.218667c12.117333 30.549333 18.005333 60.714667 16.938667 92.842667-1.002667 31.594667-13.098667 64.576-36.074667 86.784-11.712 11.306667-23.978667 18.666667-35.114667 27.456-11.413333 8.64-22.656 17.536-33.536 26.837333a399.146667 399.146667 0 0 0-31.338666 29.290667c-9.344 10.517333-19.968 21.205333-23.552 35.221333 1.92-14.570667 11.370667-26.773333 19.541333-38.570667 8.682667-11.712 18.24-22.762667 28.117333-33.450666a753.066667 753.066667 0 0 1 30.613334-31.168c10.410667-10.325333 21.930667-19.626667 29.76-29.632 16.256-20.629333 22.08-46.634667 19.797333-72.448-2.112-25.578667-11.264-52.437333-23.338667-74.090667l-0.469333-0.853333zM694.784 469.589333a21.546667 21.546667 0 1 1 42.88-4.864l0.021333 0.341334c1.770667 15.594667 1.557333 29.290667 0.576 43.712a219.434667 219.434667 0 0 1-7.125333 42.005333c-7.381333 27.242667-22.293333 53.248-44.394667 68.778667 17.109333-20.885333 23.253333-46.890667 23.274667-71.850667 0-12.586667-1.322667-25.066667-3.733333-37.333333a192.64 192.64 0 0 0-10.026667-35.008 23.68 23.68 0 0 1-1.472-5.781334zM653.674667 346.090667a32.106667 32.106667 0 0 1 47.338666 13.482666c7.274667 16.213333 0.021333 35.221333-16.192 42.496-27.754667 12.416-54.165333 20.821333-83.925333 25.536-14.741333 2.133333-30.122667 3.157333-46.208 1.066667a95.530667 95.530667 0 0 1-45.610667-18.048c-13.589333-10.026667-23.146667-24.256-28.586666-38.037333-5.546667-13.888-8.170667-27.477333-10.794667-40.512-2.538667-13.077333-5.077333-25.578667-9.642667-37.696-4.736-11.541333-9.941333-24.874667-22.229333-30.357334 13.674667 2.709333 22.549333 15.466667 30.08 26.368 7.552 11.434667 13.290667 24.213333 18.624 36.352 10.282667 24.490667 22.592 46.848 41.130667 53.845334 18.773333 7.786667 39.552 5.696 62.037333-1.962667 21.802667-7.338667 44.714667-19.392 63.402667-32.213333l0.576-0.32z" fill="#FF8A80" /><path d="M727.168 352.234667a368.597333 368.597333 0 0 0 3.989333 76.949333c4.096 25.514667 11.178667 50.538667 23.978667 71.509333 6.698667 10.901333 13.781333 18.133333 25.408 28.394667 10.88 10.346667 20.586667 22.016 27.498667 35.712 6.976 13.504 9.941333 29.418667 7.552 44.010667-2.24 14.677333-9.024 27.434667-16.405334 39.168 5.056-12.928 9.002667-26.496 8.426667-39.637334a60.16 60.16 0 0 0-13.226667-35.157333c-7.701333-9.962667-17.877333-18.325333-28.672-25.216-10.688-6.122667-25.749333-16.085333-35.797333-27.541333-21.162667-23.168-34.816-50.88-45.12-78.762667a421.76 421.76 0 0 1-21.589333-87.253333l63.957333-2.176zM556.928 662.869333a10.752 10.752 0 0 1 21.376 1.834667l-0.021333 0.256c-1.578667 18.581333-1.408 38.250667 1.344 57.088 1.408 9.450667 3.626667 18.837333 7.36 27.584 3.754667 8.661333 9.258667 17.045333 17.962666 21.930667-9.472-3.178667-17.045333-10.944-22.656-19.370667a120.277333 120.277333 0 0 1-13.034666-27.562667 264.256 264.256 0 0 1-12.309334-59.797333 19.84 19.84 0 0 1-0.021333-1.962667z" fill="#FF8A80" /><path d="M653.845333 324.010667c50.496-181.589333-162.325333-173.674667-207.658666-165.674667C542.869333 128 637.461333 97.194667 794.816 270.528c150.656 137.344 182.698667 232.149333 156.394667 304.128 19.989333-125.333333-177.258667-332.544-236.010667-202.666667-101.333333 224-463.701333 379.690667-488 394.666667-26.005333 16-52.330667-14.656-32-32 22.954667-19.541333 389.312-161.322667 458.645333-410.645333z" fill="#FBE9E7" /><path d="M88.576 806.826667l0.874667-0.042667c7.594667 76.245333 64.874667 131.498667 148.416 131.498667 416.896 0 597.333333-187.626667 597.333333-187.626667 9.130667-9.088 125.333333-115.989333 125.333333-237.333333 0-107.008-83.008-204.928-158.677333-269.333334C740.394667 191.68 676.970667 128 589.845333 128c-94.976 0-182.784 39.616-245.994666 100.672l0.042666 0.490667c-51.285333 50.154667-44.864 107.690667-39.125333 158.485333 5.461333 48.298667 10.624 93.930667-25.194667 140.736-26.837333 35.093333-57.024 60.629333-86.186666 85.290667-57.450667 48.64-111.701333 94.570667-104.810667 193.152zM131.178667 789.333333c0-6.378667 0.256-11.968 0.789333-17.301333 0.490667-4.416 1.258667-8.661333 2.133333-12.8 2.218667-9.536 5.930667-19.456 11.754667-32.448 15.786667-29.888 42.666667-53.077333 75.114667-80.554667 29.482667-24.938667 62.848-53.226667 92.501333-91.946666 46.272-60.437333 39.594667-119.424 33.706667-171.456-5.482667-48.746667-9.770667-87.317333 26.218666-122.794667A305.962667 305.962667 0 0 1 589.845333 170.666667c62.208 0 112.106667 43.264 164.906667 89.066666 6.528 5.632 12.970667 11.242667 19.434667 16.746667 53.653333 45.653333 143.637333 137.130667 143.637333 236.842667 0 88.341333-77.290667 172.714667-110.528 204.906666l-1.194667 1.194667c-9.898667 8.618667-193.194667 181.013333-568.298666 176.213333-60.416 0.512-106.624-45.717333-106.624-106.304z" fill="#FFCCBC" /></svg>