<!DOCTYPE svg PUBLIC "-//W3C//DTD SVG 1.1//EN" "http://www.w3.org/Graphics/SVG/1.1/DTD/svg11.dtd">
<!-- Uploaded to: SVG Repo, www.svgrepo.com, Transformed by: SVG Repo Mixer Tools -->
<svg width="800px" height="800px" viewBox="-102.4 -102.4 1228.80 1228.80" class="icon" version="1.1" xmlns="http://www.w3.org/2000/svg" fill="#000000">
<g id="SVGRepo_bgCarrier" stroke-width="0">
<rect x="-102.4" y="-102.4" width="1228.80" height="1228.80" rx="614.4" fill="#fbfd9b" strokewidth="0"/>
</g>
<g id="SVGRepo_tracerCarrier" stroke-linecap="round" stroke-linejoin="round"/>
<g id="SVGRepo_iconCarrier">
<path d="M937.728 612.544C928.149333 417.173333 760.512 256 554.666667 256c-205.866667 0-373.482667 161.173333-383.061334 356.544H170.666667v35.072C170.666667 666.986667 187.050667 682.666667 207.232 682.666667L874.666667 746.666667c20.202667 0 64-79.68 64-99.072v-35.072h-0.938667z" fill="#FFA000"/>
<path d="M117.482667 644.864c5.909333-24.768-21.738667-28.970667-35.242667-43.84-9.450667-10.346667-16.533333-28.48-17.984-42.090667-4.8-45.12 62.378667 0.021333 69.738667-36.885333 3.669333-18.453333-18.858667-31.786667-31.04-41.664-13.866667-11.2-25.045333-24.981333-27.584-42.816-2.986667-20.928 6.229333-42.090667 31.104-38.357333 14.613333 2.218667 31.701333 22.421333 42.624 8.832 5.141333-6.336-0.277333-17.898667-0.512-24.448-0.554667-13.653333 0.213333-26.645333 6.933333-38.656 16.234667-28.885333 32.597333-6.016 55.018667-18.816 21.184-12.010667 7.957333-44.714667 38.464-33.493334 22.549333 8.256 33.173333 15.466667 47.786666-12.650666 12.309333-23.722667 10.048-51.52 42.304-57.898667 30.208-5.930667 31.402667 9.898667 39.146667 32.832 4.949333 14.677333 11.392 44.010667 32.341333 44.501333 22.933333 0.512 33.813333-30.570667 40.448-45.568 10.176-23.061333 27.434667-42.005333 56.042667-40.448 23.914667 1.344 16.234667 24.874667 37.504 35.498667 21.077333 10.538667 33.066667-16.106667 54.528-7.616 23.04 9.173333 3.029333 32.362667 2.197333 48.810667-3.370667 68.650667 78.272-20.714667 93.482667-25.6 26.816-8.618667 35.584 5.738667 31.146667 26.304-6.72 31.082667-1.386667 34.688 29.781333 29.098666 20.416-3.626667 54.208-11.968 56.085333 16.576 1.28 18.730667-26.368 33.365333-23.488 50.496 6.933333 41.557333 125.546667-10.261333 152.32 17.472 9.258667 9.6 7.466667 37.653333-0.170666 47.424-9.088 11.562667-32.405333 16.746667-31.253334 35.093334 1.258667 20.416 29.056 10.624 42.304 22.357333 19.328 17.130667 1.877333 27.541333-12.949333 33.706667-10.218667 4.266667-21.269333 9.856-21.568 22.848-0.341333 13.866667 14.549333 18.986667 22.08 29.802666 6.997333 10.133333 27.989333 62.698667 14.272 71.68-12.970667 8.512-20.16-13.269333-27.562667-17.322666-15.338667-8.405333-16.128 1.365333-23.808 11.925333-11.328 15.488-27.157333 26.218667-45.013333 34.688-48.426667 23.018667-71.616-14.314667-116.309333-29.034667L117.482667 644.864z" fill="#8BC34A"/>
<path d="M896 576a42.666667 42.666667 0 0 1-42.666667 42.666667h-42.666666a42.666667 42.666667 0 0 1-42.666667-42.666667v-42.666667a42.666667 42.666667 0 0 1 42.666667-42.666666h42.666666a42.666667 42.666667 0 0 1 42.666667 42.666666v42.666667zM597.333333 362.666667a42.666667 42.666667 0 0 1-42.666666 42.666666h-42.666667a42.666667 42.666667 0 0 1-42.666667-42.666666v-42.666667a42.666667 42.666667 0 0 1 42.666667-42.666667h42.666667a42.666667 42.666667 0 0 1 42.666666 42.666667v42.666667zM234.666667 520.832a42.666667 42.666667 0 0 1-60.330667 0L144.170667 490.666667a42.666667 42.666667 0 0 1 0-60.330667l30.165333-30.165333a42.666667 42.666667 0 0 1 60.330667 0l30.165333 30.165333a42.666667 42.666667 0 0 1 0 60.330667L234.666667 520.832z" fill="#795548"/>
<path d="M764.330667 478.165333a42.666667 42.666667 0 0 1-60.330667 0L673.834667 448a42.666667 42.666667 0 0 1 0-60.330667L704 357.504a42.666667 42.666667 0 0 1 60.330667 0l30.165333 30.165333a42.666667 42.666667 0 0 1 0 60.330667l-30.165333 30.165333zM380.330667 414.165333a42.666667 42.666667 0 0 1-60.330667 0L289.834667 384a42.666667 42.666667 0 0 1 0-60.330667L320 293.504a42.666667 42.666667 0 0 1 60.330667 0l30.165333 30.165333a42.666667 42.666667 0 0 1 0 60.330667l-30.165333 30.165333z" fill="#FF3D00"/>
<path d="M936.256 662.101333c-1.664-2.005333-3.221333-4.096-4.757333-6.058666C873.088 782.314667 853.333333 704 853.333333 704l-0.981333-6.506667C842.581333 502.314667 675.093333 341.333333 469.312 341.333333 263.466667 341.333333 95.829333 502.506667 86.250667 697.834667H85.333333v35.072C85.333333 752.277333 101.696 768 121.898667 768h694.848c1.941333 0 3.818667-0.277333 5.674666-0.533333 84.458667-5.589333 107.584-70.336 113.834667-105.365334z" fill="#FFC107"/>
<path d="M234.688 618.666667m-21.354667 0a21.354667 21.354667 0 1 0 42.709334 0 21.354667 21.354667 0 1 0-42.709334 0Z" fill="#F57C00"/>
<path d="M277.333333 554.666667m-21.333333 0a21.333333 21.333333 0 1 0 42.666667 0 21.333333 21.333333 0 1 0-42.666667 0Z" fill="#F57C00"/>
<path d="M320.021333 618.666667m-21.354666 0a21.354667 21.354667 0 1 0 42.709333 0 21.354667 21.354667 0 1 0-42.709333 0Z" fill="#F57C00"/>
</g>
</svg>